<svg xmlns="http://www.w3.org/2000/svg" viewBox="0 0 1254 1254">
  <defs>
    <linearGradient id="bg" x1="0" x2="1" y1="0" y2="1">
      <stop offset="0" stop-color="#eaf6ff"/>
      <stop offset=".58" stop-color="#cfeaff"/>
      <stop offset="1" stop-color="#84c3ff"/>
    </linearGradient>
    <linearGradient id="blue" x1="0" x2="0" y1="0" y2="1">
      <stop offset="0" stop-color="#8bdcff"/>
      <stop offset="1" stop-color="#258dff"/>
    </linearGradient>
    <filter id="shadow" x="-30%" y="-20%" width="160%" height="160%">
      <feDropShadow dx="0" dy="28" stdDeviation="25" flood-color="#0d315a" flood-opacity=".22"/>
    </filter>
  </defs>
  <rect x="32" y="32" width="1190" height="1190" rx="76" fill="url(#bg)" stroke="#fff" stroke-width="6"/>
  <g filter="url(#shadow)">
    <rect x="389" y="99" width="476" height="1056" rx="76" fill="#111"/>
    <rect x="407" y="119" width="440" height="1016" rx="62" fill="#fff"/>
    <rect x="548" y="137" width="180" height="44" rx="22" fill="#050505"/>
    <text x="455" y="167" font-family="Instrument Sans, Arial, sans-serif" font-size="22" font-weight="700" fill="#141414">9:41</text>
    <circle cx="783" cy="160" r="9" fill="#111"/>
    <path d="M734 161h28m11-8v16m16-22v28" stroke="#111" stroke-width="6" stroke-linecap="round"/>
    <g transform="translate(477 285)">
      <path d="M150 0 288 52v122c0 96-57 172-138 209C69 346 12 270 12 174V52Z" fill="#f0f7ff" stroke="#72baff" stroke-width="9"/>
      <path d="M90 161c31-69 92-75 146-28-44-12-80-4-105 28l56 10-82 79 14-75Z" fill="#258dff"/>
      <circle cx="218" cy="116" r="13" fill="#258dff"/>
      <path d="M14 232c-28 0-50-22-50-49s22-49 50-49c9-39 44-68 86-68 45 0 83 33 91 77 30 2 54 27 54 58 0 32-26 58-58 58H14Z" transform="translate(40 156)" fill="#fff" opacity=".92"/>
    </g>
    <text x="627" y="767" text-anchor="middle" font-family="Instrument Sans, Arial, sans-serif" font-size="58" font-weight="700" fill="#111">Welcome to</text>
    <text x="627" y="832" text-anchor="middle" font-family="Instrument Sans, Arial, sans-serif" font-size="58" font-weight="700" fill="#111">Raven</text>
    <text x="627" y="882" text-anchor="middle" font-family="Instrument Sans, Arial, sans-serif" font-size="26" font-weight="500" fill="#7b8794">Safer feeds, clearer comments</text>
    <g transform="translate(452 940)">
      <rect width="350" height="78" rx="39" fill="url(#blue)"/>
      <text x="175" y="50" text-anchor="middle" font-family="Instrument Sans, Arial, sans-serif" font-size="30" font-weight="700" fill="#fff">Start Scan</text>
    </g>
    <rect x="452" y="1038" width="350" height="70" rx="35" fill="#fff" stroke="#d6e0ea" stroke-width="3"/>
    <text x="627" y="1083" text-anchor="middle" font-family="Instrument Sans, Arial, sans-serif" font-size="28" font-weight="700" fill="#258dff">Sign In</text>
  </g>
</svg>
