<svg xmlns="http://www.w3.org/2000/svg" viewBox="0 0 1254 1254">
  <defs>
    <linearGradient id="bg" x1="0" x2="1" y1="0" y2="1"><stop offset="0" stop-color="#edf8ff"/><stop offset="1" stop-color="#82c2ff"/></linearGradient>
    <linearGradient id="blue" x1="0" x2="0" y1="0" y2="1"><stop offset="0" stop-color="#8bdcff"/><stop offset="1" stop-color="#258dff"/></linearGradient>
    <filter id="shadow" x="-30%" y="-20%" width="160%" height="160%"><feDropShadow dx="0" dy="28" stdDeviation="25" flood-color="#0d315a" flood-opacity=".22"/></filter>
  </defs>
  <rect x="32" y="32" width="1190" height="1190" rx="76" fill="url(#bg)" stroke="#fff" stroke-width="6"/>
  <g filter="url(#shadow)">
    <rect x="371" y="96" width="512" height="1060" rx="76" fill="#111"/>
    <rect x="389" y="116" width="476" height="1020" rx="62" fill="#fff"/>
    <rect x="548" y="135" width="180" height="44" rx="22" fill="#050505"/>
    <text x="627" y="241" text-anchor="middle" font-family="Instrument Sans, Arial" font-size="40" font-weight="700" fill="#121212">Raven Model</text>
    <circle cx="627" cy="398" r="116" fill="#f3f9ff" stroke="#d5ecff" stroke-width="12"/>
    <path d="M627 282a116 116 0 0 1 108 74" fill="none" stroke="#258dff" stroke-width="16" stroke-linecap="round"/>
    <text x="627" y="385" text-anchor="middle" font-family="Instrument Sans, Arial" font-size="52" font-weight="800" fill="#121212">92%</text>
    <text x="627" y="430" text-anchor="middle" font-family="Instrument Sans, Arial" font-size="20" font-weight="700" fill="#7b8794">confidence</text>
    <g transform="translate(443 557)" font-family="Instrument Sans, Arial">
      <g><rect width="170" height="110" rx="22" fill="#fff" stroke="#e7edf4"/><text x="24" y="42" font-size="20" font-weight="800" fill="#111">Toxicity</text><text x="24" y="78" font-size="28" font-weight="800" fill="#258dff">12%</text></g>
      <g transform="translate(198 0)"><rect width="170" height="110" rx="22" fill="#fffaf0" stroke="#f4d38a"/><text x="24" y="42" font-size="20" font-weight="800" fill="#111">Threat</text><text x="24" y="78" font-size="28" font-weight="800" fill="#bb6b00">4%</text></g>
      <g transform="translate(0 132)"><rect width="170" height="110" rx="22" fill="#fff" stroke="#e7edf4"/><text x="24" y="42" font-size="20" font-weight="800" fill="#111">Harass</text><text x="24" y="78" font-size="28" font-weight="800" fill="#258dff">18%</text></g>
      <g transform="translate(198 132)"><rect width="170" height="110" rx="22" fill="#fff" stroke="#e7edf4"/><text x="24" y="42" font-size="20" font-weight="800" fill="#111">Identity</text><text x="24" y="78" font-size="28" font-weight="800" fill="#258dff">6%</text></g>
    </g>
    <path d="M453 890c42-34 72-18 111-38 48-24 75 24 129-8 42-25 72-10 106-35" fill="none" stroke="#258dff" stroke-width="9" stroke-linecap="round"/>
    <g transform="translate(443 986)"><rect width="370" height="74" rx="37" fill="url(#blue)"/><text x="185" y="47" text-anchor="middle" font-family="Instrument Sans, Arial" font-size="27" font-weight="700" fill="#fff">Review Queue</text></g>
  </g>
</svg>
