<svg width="96" height="96" viewBox="0 0 96 96" fill="none" xmlns="http://www.w3.org/2000/svg">
  <rect x="6" y="6" width="84" height="84" rx="22" fill="url(#bg)"/>
  <path d="M48 18L70 27V45.5C70 59.3 61.8 71.9 48 78C34.2 71.9 26 59.3 26 45.5V27L48 18Z" fill="white" fill-opacity="0.78" stroke="#5EB3FF" stroke-width="4"/>
  <path d="M57.4 34.6C51.6 30.4 42.7 32 38.5 38.6C36.4 41.9 35.8 45.9 36.9 49.5L28.8 55.2L42.2 56.4L37.8 73L63.4 48.5L49.8 45.1L57.4 34.6Z" fill="url(#bolt)"/>
  <defs>
    <linearGradient id="bg" x1="48" y1="6" x2="48" y2="90" gradientUnits="userSpaceOnUse">
      <stop stop-color="#EAF7FF"/>
      <stop offset="1" stop-color="#78BCFF"/>
    </linearGradient>
    <linearGradient id="bolt" x1="32" y1="32" x2="63" y2="69" gradientUnits="userSpaceOnUse">
      <stop stop-color="#5DB8FF"/>
      <stop offset="1" stop-color="#1878F2"/>
    </linearGradient>
  </defs>
</svg>
